<svg width="29" height="28" viewBox="0 0 29 28" fill="none" xmlns="http://www.w3.org/2000/svg">
<path d="M18.3331 17.8485C19.7853 17.5576 21.1031 17.0534 22.1274 16.3131C23.8768 15.0489 24.7708 13.0963 24.7708 11.1672C24.7708 9.81396 24.2384 8.5505 23.3165 7.48038C22.8029 6.88408 24.3053 2.96287 22.9704 3.56208C21.6355 4.16129 19.6782 4.95965 18.6522 4.66694C17.5538 4.35355 16.3568 4.18137 15.1042 4.18137C14.0162 4.18137 12.9702 4.31126 11.9943 4.55075C10.5757 4.89886 9.21904 4.12718 7.85417 3.56208C6.48927 2.99698 7.23405 7.07078 6.82865 7.55473C5.94572 8.60878 5.4375 9.8451 5.4375 11.1672C5.4375 13.0963 6.51948 15.0489 8.26881 16.3131C9.43412 17.1552 10.8955 17.6919 12.5305 17.9564" stroke="#5d5aff" stroke-width="1.5" stroke-linecap="round" stroke-linejoin="round"/>
<path d="M12.5306 17.9565C11.8306 18.6989 11.4807 19.4038 11.4807 20.0713C11.4807 20.7387 11.4807 21.7847 11.4807 24.5001" stroke="#5d5aff" stroke-width="1.5" stroke-linecap="round" stroke-linejoin="round"/>
<path d="M18.333 17.8484C18.9962 18.6872 19.3279 19.4403 19.3279 20.1077C19.3279 20.7752 19.3279 21.8091 19.3279 24.4999" stroke="#5d5aff" stroke-width="1.5" stroke-linecap="round" stroke-linejoin="round"/>
<path d="M4.22916 18.2788C4.77222 18.3428 5.175 18.5834 5.43749 19.0006C5.83122 19.6264 7.29482 21.9478 8.95682 21.9478C10.0649 21.9478 10.9061 21.9478 11.4806 21.9478" stroke="#5d5aff" stroke-width="1.5" stroke-linecap="round" stroke-linejoin="round"/>
</svg>
