<svg width="29" height="28" viewBox="0 0 29 28" fill="none" xmlns="http://www.w3.org/2000/svg">
<path d="M18.6834 13.4011C18.8139 14.2507 18.6636 15.1184 18.2539 15.8807C17.8442 16.6431 17.196 17.2613 16.4014 17.6475C15.6068 18.0336 14.7064 18.168 13.8281 18.0316C12.9499 17.8951 12.1385 17.4947 11.5095 16.8874C10.8805 16.2801 10.4659 15.4968 10.3246 14.6488C10.1832 13.8008 10.3224 12.9314 10.7224 12.1643C11.1223 11.3971 11.7626 10.7712 12.5522 10.3756C13.3418 9.98005 14.2404 9.83494 15.1204 9.96092C16.0179 10.0894 16.8489 10.4932 17.4905 11.1127C18.1321 11.7322 18.5503 12.5345 18.6834 13.4011Z" stroke="#5d5aff" stroke-width="1.5" stroke-linecap="round" stroke-linejoin="round"/>
<path d="M20.5417 7.58325H21.1458" stroke="#5d5aff" stroke-width="1.5" stroke-linecap="round" stroke-linejoin="round"/>
<path d="M3.625 10.9667C3.625 8.35309 3.625 7.0463 4.1518 6.04804C4.61519 5.16995 5.3546 4.45605 6.26405 4.00864C7.29795 3.5 8.65141 3.5 11.3583 3.5H17.6417C20.3486 3.5 21.702 3.5 22.736 4.00864C23.6454 4.45605 24.3848 5.16995 24.8482 6.04804C25.375 7.0463 25.375 8.35309 25.375 10.9667V17.0333C25.375 19.6469 25.375 20.9537 24.8482 21.952C24.3848 22.83 23.6454 23.544 22.736 23.9914C21.702 24.5 20.3486 24.5 17.6417 24.5H11.3583C8.65141 24.5 7.29795 24.5 6.26405 23.9914C5.3546 23.544 4.61519 22.83 4.1518 21.952C3.625 20.9537 3.625 19.6469 3.625 17.0333V10.9667Z" stroke="#5d5aff" stroke-width="1.5" stroke-linecap="round" stroke-linejoin="round"/>
</svg>
