<svg id="svg" xmlns="http://www.w3.org/2000/svg" xmlns:xlink="http://www.w3.org/1999/xlink" width="400" height="400" viewBox="0, 0, 400,400"><g id="svgg"><path id="path0" d="M185.156 31.284 C 42.436 44.134,-20.828 218.293,80.440 319.560 C 173.145 412.265,332.500 368.416,364.073 241.513 C 392.203 128.445,300.664 20.885,185.156 31.284 M220.992 49.618 C 332.459 65.461,388.836 194.237,324.625 286.335 C 259.409 379.874,118.643 371.134,65.707 270.259 C 8.708 161.641,99.683 32.375,220.992 49.618 M123.569 113.753 C 104.745 123.133,114.241 150.670,135.435 148.160 C 160.727 145.164,158.646 111.815,133.161 111.736 C 128.768 111.722,126.823 112.131,123.569 113.753 M239.334 162.828 C 232.516 164.482,226.690 167.878,220.616 173.739 L 214.844 179.309 214.844 171.686 L 214.844 164.063 196.484 164.063 L 178.125 164.063 178.125 215.234 L 178.125 266.406 198.005 266.406 L 217.884 266.406 218.122 236.133 C 218.347 207.375,218.441 205.683,219.987 202.344 C 224.978 191.563,237.351 189.712,244.092 198.737 C 245.650 200.823,245.711 201.970,245.931 233.650 L 246.158 266.406 266.497 266.406 L 286.836 266.406 286.512 228.320 C 286.165 187.552,286.017 185.938,281.892 177.852 C 275.266 164.864,257.214 158.491,239.334 162.828 M114.063 215.234 L 114.063 266.406 133.984 266.406 L 153.906 266.406 153.906 215.234 L 153.906 164.063 133.984 164.063 L 114.063 164.063 114.063 215.234 " stroke="none" fill="#5d5aff" fill-rule="evenodd"></path></g></svg>